<?xml version="1.0" encoding="UTF-8"?>
<svg width="290px" height="299px" viewBox="0 0 290 299" version="1.1" xmlns="http://www.w3.org/2000/svg" xmlns:xlink="http://www.w3.org/1999/xlink">
    <title>Order illustration</title>
    <defs>
        <path d="M19.3713436,3.30759714 L15.295076,4.19304382 L0,7.50064096 L14.4594832,54.194878 C14.4594832,54.2241488 14.4522172,54.2607345 14.4594832,54.297323 C14.8009886,55.8998989 20.9190179,55.9364814 28.1269602,54.3704938 C35.3349025,52.8045062 40.900714,50.2506376 40.5592087,48.6480617 C40.5519426,48.6187909 40.5301446,48.58951 40.5156125,48.5602392 L34.6664244,0 L19.3713436,3.30759714 Z" id="path-1"></path>
        <path d="M93.6161362,0 C133.249729,0.00872004228 148.554397,12.9614941 174.015713,42.0987088 C197.891685,69.4241025 214.929754,65.3039568 228.640364,75.7916114 C250.991968,92.8993798 263.692163,151.95777 220.391374,188.072236 C159.007214,239.282305 119.573965,242.39203 66.525925,225.859165 C30.7511636,214.709498 0.76900231,184.239542 0.0460158851,150.50309 C-1.34769294,85.3210953 29.2790588,75.2079922 42.806744,39.2764503 C55.3152793,6.05392868 79.8968153,-0.00870131174 93.6161362,0 Z" id="path-3"></path>
        <path d="M86.0005388,0 C91.9586436,0 96.7930527,4.83442475 96.7930527,10.7925286 L96.7930527,172.985344 C96.7930527,178.943448 91.9586436,183.777878 86.0005388,183.777878 L10.7925305,183.777878 C4.83442561,183.777878 0,178.943448 0,172.985344 L0,10.7925286 C0,4.82571465 4.83442561,0 10.7925305,0 L86.0005388,0 Z" id="path-5"></path>
    </defs>
    <g id="Food-App" stroke="none" stroke-width="1" fill="none" fill-rule="evenodd">
        <g id="3rd" transform="translate(-43, -188)">
            <g id="Order-illustration" transform="translate(43, 188)">
                <path d="M122.72448,0.529541016 C162.358073,0.538261058 177.662747,13.4910363 203.124064,42.6282521 C227.000037,69.9536472 244.038107,65.8334965 257.748717,76.3211518 C280.100321,93.4289213 292.800504,152.487309 249.499715,188.601776 C188.115553,239.811848 148.682302,242.921562 95.6342605,226.388697 C59.8594988,215.23903 29.8773397,184.769086 29.1543533,151.032634 C27.7606445,85.8506348 58.3873976,75.737538 71.9150831,39.8059946 C84.423619,6.5834723 109.005159,0.520839704 122.72448,0.529541016 Z" id="Background" fill="#B3FFD1" fill-rule="nonzero"></path>
                <g id="Potato-Stick" transform="translate(230.9219, 16.9792)" fill-rule="nonzero">
                    <g id="Group" transform="translate(4.0112, 0)" fill="#EDB82C">
                        <path d="M27.458349,55.1957323 C25.9775338,54.6382489 25.2284219,52.9919343 25.7771946,51.5111189 L38.6690131,17.0168268 C39.2264964,15.5360113 40.8727983,14.7868927 42.3536135,15.3356655 L42.5191185,15.3966433 C43.9999337,15.9541267 44.7490455,17.6004446 44.2002728,19.0812601 L31.3084801,53.5755522 C30.7509967,55.0563676 29.1046692,55.8141903 27.623854,55.2567068 L27.458349,55.1957323 Z" id="Vector"></path>
                        <path d="M23.1464388,50.7273675 C21.6307804,50.2918336 20.7510017,48.7064904 21.1865357,47.1821217 L32.0313167,9.38648956 C32.4668507,7.87083153 34.052201,6.99105303 35.5765701,7.42658694 L35.7420751,7.47885055 C37.2577336,7.91438446 38.1375123,9.49972931 37.7019783,11.024098 L26.8484781,48.8197268 C26.4129441,50.3440955 24.8276023,51.2151633 23.3119439,50.7796294 L23.1464388,50.7273675 Z" id="Vector"></path>
                        <path d="M21.334692,61.0494176 C19.8538766,60.4919342 19.1047647,58.8456197 19.6535374,57.3648044 L33.4251188,20.5360527 C33.9826022,19.0552374 35.6289299,18.3061188 37.1097453,18.8548915 L37.2752503,18.915866 C38.7560657,19.4733494 39.5051777,21.1196672 38.9564049,22.6004825 L25.1848235,59.4292309 C24.6360508,60.9187569 22.9810124,61.6678754 21.500197,61.110392 L21.334692,61.0494176 Z" id="Vector"></path>
                        <path d="M18.4428256,46.7638675 C16.9271671,46.3283335 16.0473884,44.7429903 16.4829224,43.2186216 L27.3277034,5.42298863 C27.7632374,3.90733056 29.3485877,3.02755205 30.8729568,3.46308597 L31.0384619,3.51535124 C32.5541203,3.95088516 33.433899,5.53622838 32.998365,7.06059711 L22.1535574,44.8562334 C21.7180234,46.3806021 20.1326997,47.25167 18.6083306,46.8161361 L18.4428256,46.7638675 Z" id="Vector"></path>
                        <path d="M14.3052388,49.5601201 C12.7460276,49.2987997 11.692025,47.8179836 11.9533453,46.2587722 L18.486353,7.48754134 C18.7476733,5.92832996 20.2284963,4.87433726 21.7877075,5.13565762 L21.9619051,5.16179025 C23.5211163,5.42311061 24.5751189,6.90392666 24.3137986,8.46313804 L17.7807903,47.2343639 C17.5194699,48.7935753 16.0386476,49.8475714 14.4794364,49.586251 L14.3052388,49.5601201 Z" id="Vector"></path>
                        <path d="M10.8645675,52.443352 C9.28793502,52.2952705 8.13813297,50.89285 8.28621449,49.3249283 L12.0230757,10.1791506 C12.1711572,8.60251821 13.5735912,7.4527081 15.141513,7.6007896 L15.3157372,7.61821135 C16.8923697,7.76629285 18.0421717,9.16871162 17.8940902,10.7366333 L14.1572022,49.882411 C14.0091207,51.4590434 12.6067136,52.6088519 11.0387917,52.4607704 L10.8645675,52.443352 Z" id="Vector"></path>
                        <path d="M18.6952886,44.4642291 C17.1360775,44.2029087 16.0821015,42.7220992 16.3434218,41.1628878 L22.8764291,2.39165376 C23.1377494,0.832442315 24.6185457,-0.22154893 26.1777568,0.0397714403 L26.3519809,0.0659024162 C27.911192,0.327222786 28.9651945,1.80803906 28.7038742,3.3672505 L22.1708664,42.1384795 C21.9008354,43.7064016 20.4287238,44.7603978 18.8695127,44.4903667 L18.6952886,44.4642291 Z" id="Vector"></path>
                        <path d="M5.27216031,55.6313369 C3.6955278,55.4832554 2.54572575,54.0808416 2.69380726,52.5129199 L6.43069506,13.3671372 C6.57877657,11.7905048 7.98118394,10.6406964 9.54910579,10.7887779 L9.72332997,10.8061996 C11.2999625,10.9542811 12.4497645,12.3566982 12.301683,13.9246199 L8.5648216,53.0704026 C8.41674009,54.647035 7.01430634,55.7968435 5.44638449,55.648762 L5.27216031,55.6313369 Z" id="Vector"></path>
                        <path d="M2.74609478,50.5357585 C1.1694622,50.4747838 -0.0587381375,49.1420517 0.00223660539,47.5567084 L1.57886708,8.27155144 C1.63984182,6.69491885 2.97258723,5.46671351 4.55793059,5.52768826 L4.73212819,5.53639913 C6.30876077,5.59737388 7.53698762,6.93010764 7.47601287,8.51545101 L5.89935579,47.8006063 C5.82967037,49.3772389 4.49695154,50.6141565 2.92031896,50.544471 L2.74609478,50.5357585 Z" id="Vector"></path>
                    </g>
                    <path d="M42.906706,33.1489931 C42.9589701,33.8110046 42.9241242,34.4730179 42.767332,35.117608 C41.3997553,41.0234472 31.8093193,43.8369967 21.3652152,41.4067178 C10.9124002,38.976439 3.56056383,32.2256614 4.9281405,26.3198223 C5.07622204,25.6926535 5.32012743,25.10033 5.64242257,24.5428467 C4.25742455,24.9958019 3.32540126,25.736207 2.99439545,26.8337523 L0.00661224606,63.7583115 C-0.0108091118,64.0196318 0.00662819433,64.2722438 0.0501815907,64.5161428 C0.0501815907,64.5219499 0.0472751954,64.527756 0.041462405,64.5335612 C-0.420203564,66.5283062 5.95601918,69.7077065 14.2834288,71.6414768 C20.5464071,73.0961598 26.1212379,73.427164 28.7083097,72.6606244 C28.7431524,72.6519137 28.7692717,72.6432023 28.8041144,72.6257809 C29.4835473,72.408014 29.9452123,72.111852 30.1368472,71.7285823 C30.3546142,71.4759726 30.5375438,71.197228 30.6594933,70.874933 L44.3439628,36.4416313 C44.5355977,35.2831112 44.0042516,34.1855637 42.906706,33.1489931 Z" id="Vector" fill="#E06738"></path>
                </g>
                <g id="Drink" transform="translate(0, 52.2508)">
                    <path d="M29.5043601,41.9813945 L25.2883956,42.8873059 L9.47851562,46.2844719 L24.4260338,94.2019104 C24.4260338,94.2367531 24.4173231,94.2716048 24.4260338,94.3064475 C24.7831716,95.9527658 31.1071239,95.9876054 38.5547529,94.3848405 C46.0023818,92.7820756 51.7601391,90.1514459 51.4030014,88.5138383 C51.3942907,88.4789956 51.3681627,88.452863 51.359452,88.4180203 L45.3142401,38.5842285 L29.5043601,41.9813945 Z" id="Vector" fill="#E06738" fill-rule="nonzero"></path>
                    <path d="M27.2696579,30.8835121 L22.3829665,31.9375102 L4.04699707,35.874733 L21.3812447,91.4575696 C21.3812447,91.4924123 21.372534,91.5359626 21.3812447,91.579516 C21.7906465,93.4871543 29.1250331,93.5307003 37.7660239,91.6666153 C46.4070146,89.8025302 53.0793929,86.7625101 52.6699911,84.8548718 C52.6612804,84.8200291 52.635151,84.7851777 52.6177297,84.750335 L45.605632,26.9462891 L27.2696579,30.8835121 Z" id="Vector" fill="#FDF0B9" fill-rule="nonzero"></path>
                    <path d="M38.2452206,47.9826595 C37.3915742,48.0436342 36.6424527,47.4077535 36.581478,46.5453964 L35.5623303,32.8086613 C35.5013556,31.9550149 36.1372363,31.2058935 36.9995934,31.1449188 L37.4089897,31.1187878 C38.2626361,31.0578131 39.0117575,31.6936938 39.0727323,32.5560509 L40.0918799,46.292786 C40.144144,47.1464324 39.5082632,47.8955538 38.6546169,47.9565285 L38.2452206,47.9826595 Z" id="Vector" fill="#000000" fill-rule="nonzero"></path>
                    <path d="M24.6615185,37.5953264 C11.5521584,37.5953264 0.924921459,34.4948988 0.924921459,30.6703335 C0.924921459,26.8457683 11.5521584,23.7453479 24.6615185,23.7453479 C37.7708786,23.7453479 48.3981156,26.8457683 48.3981156,30.6703335 C48.3981156,34.4948988 37.7708786,37.5953264 24.6615185,37.5953264 Z" id="Vector" fill="#E06738" transform="translate(24.6615, 30.6703) rotate(-12.1224) translate(-24.6615, -30.6703)"></path>
                    <g id="Mask-Group" transform="translate(8.9931, 34.3645)">
                        <mask id="mask-2" fill="white">
                            <use xlink:href="#path-1"></use>
                        </mask>
                        <use id="Vector" fill="#A03AB4" fill-rule="nonzero" xlink:href="#path-1"></use>
                        <g id="Group" mask="url(#mask-2)" fill="#EDB82C" fill-rule="nonzero">
                            <g transform="translate(1.2384, 5.8143)" id="Vector">
                                <path d="M9.39882203,3.94506778 C13.7802931,4.46770851 14.6165149,5.93981073 20.5223545,4.27607117 C26.4281942,2.60362094 27.0727874,-0.532222911 32.5779359,0.0775245726 C35.1504893,0.362073409 37.8856415,1.75868698 40.7833927,4.26736527 L43.9976349,53.9530707 L10.1130973,61.2351952 L0,10.5216265 C3.3507079,5.78882685 6.48364857,3.59664062 9.39882203,3.94506778 Z"></path>
                            </g>
                        </g>
                    </g>
                    <path d="M36.7817952,1.63315079 L37.8880485,16.5981014 L38.6894293,27.3296579 C37.6354372,27.8174559 36.4856274,28.2878286 35.2661324,28.7494946 L34.3689335,16.5893889 L33.2888113,1.88576128 C33.2191259,0.918875884 33.933402,0.0739401384 34.908998,0.00425470655 C35.7800658,-0.056720048 36.5640275,0.544318438 36.7469517,1.38054362 C36.7643731,1.46765041 36.7730846,1.546044 36.7817952,1.63315079 Z" id="Vector" fill="#000000" fill-rule="nonzero"></path>
                </g>
                <g id="Smartphone" transform="translate(29.1083, 0.5295)">
                    <mask id="mask-4" fill="white">
                        <use xlink:href="#path-3"></use>
                    </mask>
                    <use id="Vector" fill="#FFF3F3" fill-rule="nonzero" xlink:href="#path-3"></use>
                    <g id="Group" mask="url(#mask-4)">
                        <g transform="translate(61.3517, 53.1351)">
                            <path d="M95.1641554,0 C104.014204,0 111.191811,7.17759645 111.191811,16.0276447 L111.191811,182.148979 C111.191811,190.999027 104.014204,198.17662 95.1641554,198.17662 L16.0276552,198.17662 C7.17760665,198.17662 0,190.999027 0,182.148979 L0,16.0189388 C0,7.16889056 7.17760665,0 16.0276552,0 L95.1641554,0 Z" id="Vector" fill="#000000" fill-rule="nonzero"></path>
                            <path d="M93.195603,7.19500732 C99.1537079,7.19500732 103.988121,12.0294329 103.988121,17.9875368 L103.988121,180.180358 C103.988121,186.138461 99.1537079,190.9729 93.195603,190.9729 L17.9875997,190.9729 C12.0294948,190.9729 7.19506836,186.138461 7.19506836,180.180358 L7.19506836,17.9875368 C7.19506836,12.0207225 12.0294948,7.19500732 17.9875997,7.19500732 L93.195603,7.19500732 Z" id="Vector" fill="#32B768" fill-rule="nonzero"></path>
                            <path d="M91.2357684,48.8670044 C93.9447895,48.8670044 96.1398849,51.0620929 96.1398849,53.7711136 L96.1398849,95.6259229 C96.1398849,98.3349436 93.9447895,100.530025 91.2357684,100.530025 L19.9475736,100.530025 C17.2385525,100.530025 15.043457,98.3349436 15.043457,95.6259229 L15.043457,53.7711136 C15.043457,51.0620929 17.2385525,48.8670044 19.9475736,48.8670044 L91.2357684,48.8670044 Z" id="Vector" fill="#FFFFFF" fill-rule="nonzero"></path>
                            <path d="M91.2357684,107.724915 C93.9447895,107.724915 96.1398849,109.92001 96.1398849,112.629031 L96.1398849,128.978965 C96.1398849,131.687986 93.9447895,133.883081 91.2357684,133.883081 L19.9475736,133.883081 C17.2385525,133.883081 15.043457,131.687986 15.043457,128.978965 L15.043457,112.629031 C15.043457,109.92001 17.2385525,107.724915 19.9475736,107.724915 L91.2357684,107.724915 Z" id="Vector" fill="#FFFFFF" fill-rule="nonzero"></path>
                            <path d="M91.2357684,141.078125 C93.9447895,141.078125 96.1398849,143.27322 96.1398849,145.982241 L96.1398849,162.332189 C96.1398849,165.04121 93.9447895,167.236292 91.2357684,167.236292 L19.9475736,167.236292 C17.2385525,167.236292 15.043457,165.04121 15.043457,162.332189 L15.043457,145.982241 C15.043457,143.27322 17.2385525,141.078125 19.9475736,141.078125 L91.2357684,141.078125 Z" id="Vector" fill="#FFFFFF" fill-rule="nonzero"></path>
                            <g id="Mask-Group" transform="translate(7.1951, 7.195)">
                                <mask id="mask-6" fill="white">
                                    <use xlink:href="#path-5"></use>
                                </mask>
                                <use id="Vector" fill="#FFFFFF" fill-rule="nonzero" xlink:href="#path-5"></use>
                                <path d="M84.040639,167.236328 C86.7496601,167.236328 88.9447556,169.431423 88.9447556,172.140444 L88.9447556,188.490405 C88.9447556,191.199426 86.7496601,193.394495 84.040639,193.394495 L12.7524442,193.394495 C10.0434231,193.394495 7.84832764,191.199426 7.84832764,188.490405 L7.84832764,172.140444 C7.84832764,169.440134 10.0434231,167.236328 12.7524442,167.236328 L84.040639,167.236328 Z" id="Vector" fill="#32B768" fill-rule="nonzero" mask="url(#mask-6)"></path>
                            </g>
                            <g transform="translate(26.707, 32.2296)" fill-rule="nonzero" id="Vector">
                                <path d="M4.28550711,21.9246216 L4.28550711,32.7519873 C4.28550711,37.2554076 15.8271602,40.9051819 30.0691187,40.9051819 C44.3110771,40.9051819 55.8527152,37.2554076 55.8527152,32.7519873 C56.0791928,28.4953696 56.0762908,24.8862477 55.8440093,21.9246216 L4.28550711,21.9246216 Z" fill="#EDB82C"></path>
                                <path d="M58.8231516,24.6337139 C57.9956371,26.2016358 54.9468942,27.3775688 53.9451661,27.6737318 C51.6542575,28.3531646 53.3092928,31.8722874 48.997507,30.827006 C46.7675733,30.286944 46.1055568,31.8025971 44.8686405,33.0133813 C43.6317241,34.2241654 40.3303816,33.3792339 37.2380907,32.0377897 C34.1457997,30.7050561 31.4629043,34.4680644 28.4664308,34.102216 C25.4786679,33.7363675 22.7957837,32.2816844 20.835881,33.0133813 C18.8759782,33.7450782 17.7435911,33.0133867 15.3655758,30.7050571 C12.9962711,28.3967275 10.6182622,31.5587035 8.45801389,30.7050571 C6.28905487,29.8514107 7.11656088,27.7869749 4.74725623,26.6981402 C2.37795158,25.6093055 -6.10351562e-05,25.1999047 -6.10351562e-05,23.8410391 C-6.10351562e-05,21.7911263 1.56785937,20.5106579 4.70370018,19.9996338 L55.199506,20.6180911 C57.6472067,20.4874309 59.6419554,23.065792 58.8231516,24.6337139 Z" fill="#E06738"></path>
                                <path d="M30.0603323,28.6145782 C15.8183735,28.6145782 4.2767334,26.5588658 4.2767334,17.1077791 C4.2767334,7.65669237 15.8183735,0 30.0603323,0 C44.3022912,0 55.8439445,7.65669237 55.8439445,17.1077791 C55.8439445,26.550155 44.3022912,28.6145782 30.0603323,28.6145782 Z" fill="#EDB82C"></path>
                            </g>
                            <path d="M38.187564,19.5541565 C37.1945466,19.5541565 36.3844604,18.7440639 36.3844604,17.7510468 C36.3844604,16.7580297 37.1945466,15.947937 38.187564,15.947937 L74.2410612,15.947937 C75.2340785,15.947937 76.044178,16.7580297 76.044178,17.7510468 C76.044178,18.7440639 75.2340785,19.5541565 74.2410612,19.5541565 L38.187564,19.5541565 Z" id="Vector" fill="#0E7F3D" fill-rule="nonzero"></path>
                            <g id="Group-3099" transform="translate(30.9927, 83.1783)" fill="#0E7F3D" fill-rule="nonzero">
                                <path d="M1.80311642,3.60621953 C0.810099311,3.60621953 0,2.79613352 0,1.80311641 C0,0.810099305 0.810099311,0 1.80311642,0 L48.6404146,0 C49.6334317,0 50.443531,0.810099305 50.443531,1.80311641 C50.443531,2.79613352 49.6334365,3.60621953 48.6317087,3.60621953 L1.80311642,3.60621953 Z" id="Vector"></path>
                                <path d="M10.478885,10.0955994 C9.48586753,10.0955994 8.67578125,9.28550011 8.67578125,8.292483 C8.67578125,7.2994659 9.48586753,6.48937988 10.478885,6.48937988 L39.9558208,6.48937988 C40.9488383,6.48937988 41.7589378,7.2994659 41.7589378,8.292483 C41.7589378,9.28550011 40.9575489,10.0955994 39.9558208,10.0955994 L10.478885,10.0955994 Z" id="Vector"></path>
                            </g>
                            <path d="M23.9196121,128.378042 C22.7001171,128.378042 21.7070923,127.385031 21.7070923,126.165536 L21.7070923,115.451398 C21.7070923,114.231903 22.7001171,113.238892 23.9196121,113.238892 L34.6337497,113.238892 C35.8532447,113.238892 36.8462563,114.231903 36.8462563,115.451398 L36.8462563,126.165536 C36.8462563,127.385031 35.8532447,128.378042 34.6337497,128.378042 L23.9196121,128.378042 Z" id="Vector" fill="#0E7F3D" fill-rule="nonzero"></path>
                            <g transform="translate(41.2888, 114.9462)" fill="#32B768" fill-rule="nonzero" id="Vector">
                                <path d="M1.19335858,2.38673043 C0.531347088,2.38673043 0,1.85538335 0,1.19337186 C0,0.531360377 0.531347088,0 1.19335858,0 L33.0831498,0 C33.7451612,0 34.2765083,0.531360377 34.2765083,1.19337186 C34.2765083,1.85538335 33.7451612,2.38673043 33.0831498,2.38673043 L1.19335858,2.38673043 Z"></path>
                                <path d="M1.19341961,7.13398385 C0.531408123,7.13398385 6.10351562e-05,6.60263677 6.10351562e-05,5.94062528 C6.10351562e-05,5.27861379 0.531408123,4.74725342 1.19341961,4.74725342 L33.0832108,4.74725342 C33.7452223,4.74725342 34.2765694,5.27861379 34.2765694,5.94062528 C34.2765694,6.5939261 33.7452223,7.13398385 33.0832108,7.13398385 L1.19341961,7.13398385 Z"></path>
                                <path d="M1.1934196,11.724499 C0.53140812,11.724499 6.10351562e-05,11.1931519 6.10351562e-05,10.5311404 C6.10351562e-05,9.86912893 0.53140812,9.33776855 1.1934196,9.33776855 L28.431712,9.33776855 C29.0937235,9.33776855 29.6251736,9.86912893 29.6251736,10.5311404 C29.6337812,11.1844412 29.0937235,11.724499 28.431712,11.724499 L1.1934196,11.724499 Z"></path>
                            </g>
                            <path d="M23.9196121,161.731205 C22.7001171,161.731205 21.7070923,160.73818 21.7070923,159.518685 L21.7070923,148.804561 C21.7070923,147.585066 22.7001171,146.592041 23.9196121,146.592041 L34.6337497,146.592041 C35.8532447,146.592041 36.8462563,147.585066 36.8462563,148.804561 L36.8462563,159.518685 C36.8462563,160.73818 35.8532447,161.731205 34.6337497,161.731205 L23.9196121,161.731205 Z" id="Vector" fill="#0E7F3D" fill-rule="nonzero"></path>
                            <g transform="translate(41.2888, 148.3167)" fill="#32B768" fill-rule="nonzero" id="Vector">
                                <path d="M1.19335858,2.38673043 C0.531347088,2.38673043 0,1.85538335 0,1.19337186 C0,0.531360377 0.531347088,0 1.19335858,0 L33.0831498,0 C33.7451612,0 34.2765083,0.531360377 34.2765083,1.19337186 C34.2765083,1.85538335 33.7451612,2.38673043 33.0831498,2.38673043 L1.19335858,2.38673043 Z"></path>
                                <path d="M1.19341961,7.13409281 C0.531408123,7.13409281 6.10351562e-05,6.60274568 6.10351562e-05,5.94073415 C6.10351562e-05,5.27872261 0.531408123,4.74737549 1.19341961,4.74737549 L33.0832108,4.74737549 C33.7452223,4.74737549 34.2765694,5.27872261 34.2765694,5.94073415 C34.2765694,6.60274568 33.7452223,7.13409281 33.0832108,7.13409281 L1.19341961,7.13409281 Z"></path>
                                <path d="M1.1934196,11.68977 C0.53140812,11.68977 6.10351562e-05,11.1584096 6.10351562e-05,10.4963981 C6.10351562e-05,9.83438664 0.53140812,9.30303955 1.1934196,9.30303955 L28.431712,9.30303955 C29.0937235,9.30303955 29.6251736,9.83438664 29.6251736,10.4963981 C29.6337812,11.1496989 29.0937235,11.68977 28.431712,11.68977 L1.1934196,11.68977 Z"></path>
                            </g>
                        </g>
                    </g>
                </g>
                <g id="Hand" transform="translate(148.813, 123.2929)">
                    <path d="M105.312056,46.6420612 C98.9881037,20.3793675 86.679932,22.0953627 80.0946597,24.8043835 C79.8681821,24.900201 77.3333536,20.6929557 71.2533005,20.6929557 C64.084413,20.6929557 64.1454087,24.0552716 62.0200033,24.4298307 C60.4259492,24.7085724 57.1333108,23.2800254 52.5689159,24.3253068 C47.9783887,25.3792989 46.1142919,28.9071267 44.5812126,30.0569362 L38.9192721,8.9335405 C37.1945579,2.50506008 30.5831545,-1.31022885 24.1546742,0.414485397 C17.7261939,2.13919965 13.9109182,8.75061457 15.6356324,15.179095 L30.8793202,72.0162703 L18.8237437,63.8369442 C13.3185952,60.1000634 5.81870063,61.5286082 2.08181989,67.0424673 C-1.65506085,72.5476159 -0.226516035,80.0475106 5.28734294,83.7843914 L38.7102243,106.47571 C46.262382,111.832777 56.0618891,119.367509 59.6681096,124.715865 C63.7911637,130.830761 68.9188505,146.640636 75.0511698,172.145491 C106.055375,179.54376 125.532449,172.906227 133.482391,152.232894 L116.618532,102.529774 C110.860774,92.0769605 109.22315,62.8700534 105.312056,46.6420612 Z" id="Vector" fill="#F0C7A9" fill-rule="nonzero"></path>
                    <path d="M122.324079,110.752638 C121.400747,107.878114 118.683025,106.014017 115.747526,106.249205 L79.7549904,109.115026 C79.3107457,109.149869 78.8926224,109.245694 78.4919311,109.367643 L78.0128544,108.026191 L75.5041743,111.301415 C75.3386714,111.501761 75.173161,111.702099 75.0337901,111.919866 L74.9467046,112.041801 L74.9553972,112.05924 C74.7114981,112.44251 74.49373,112.851906 74.3282271,113.278729 C73.8230077,114.620174 73.7446243,116.161972 74.2324224,117.668919 L80.2515055,136.42301 C81.1748375,139.297534 83.8925588,141.161604 86.8280579,140.926416 L122.820594,138.060622 C126.923324,137.729616 129.641053,133.531062 128.343162,129.506729 L122.324079,110.752638 Z" id="Vector" fill="#0E7F3D" fill-rule="nonzero"></path>
                    <path d="M131.113177,145.281673 C134.963304,128.005507 132.03652,116.495803 122.332825,110.752563 L125.529629,130.996168 L131.113177,145.281673 Z" id="Vector" fill="#000000" fill-rule="nonzero"></path>
                    <path d="M88.8139548,137.651304 C86.0613802,137.869071 83.509146,135.996264 82.6293675,133.12174 L76.8977525,114.341518 C75.6695468,110.308474 78.1869363,106.127349 82.0457669,105.822475 L115.756078,103.130879 C118.508653,102.913112 121.060887,104.785892 121.940666,107.660416 L127.672307,126.440639 C128.900513,130.473683 126.374413,134.654833 122.524293,134.959707 L88.8139548,137.651304 Z" id="Vector" fill="#399675" fill-rule="nonzero"></path>
                    <path d="M70.704404,155.569008 C64.0262283,158.559687 59.9757684,156.533007 58.5530243,149.488971 C56.4101976,138.931627 55.9398137,120.386577 73.9534955,116.484192 L80.2338867,136.422951 C71.4999797,140.174339 68.3234855,146.556358 70.704404,155.569008 Z" id="Vector" fill="#000000" fill-rule="nonzero"></path>
                    <line x1="42.8912354" y1="23.2799683" x2="50.6524529" y2="49.6210613" id="Vector" stroke="#000000" stroke-width="1.7561475" stroke-linecap="round" stroke-dasharray="0,0"></line>
                    <path d="M62.7168579,24.9002686 C62.7168579,24.9002686 69.6592606,35.3443752 70.7393847,48.0009899" id="Vector" stroke="#000000" stroke-width="1.7561475" stroke-linecap="round" stroke-dasharray="0,0" fill-rule="nonzero"></path>
                    <path d="M80.2340698,25.3009644 C80.2340698,25.3009644 87.1764992,35.745071 88.2566233,48.4016857" id="Vector" stroke="#000000" stroke-width="1.7561475" stroke-linecap="round" stroke-dasharray="0,0" fill-rule="nonzero"></path>
                </g>
                <path d="M45.8367338,215.998175 C38.933273,215.998175 33.3369141,210.40181 33.3369141,203.498349 C33.3369141,196.594889 38.933273,190.998535 45.8367338,190.998535 C52.7401946,190.998535 58.3365536,196.594889 58.3365536,203.498349 C58.3365536,210.40181 52.7401946,215.998175 45.8367338,215.998175 Z" id="circle" fill="#399675"></path>
                <path d="M284.385897,127.514073 C283.662911,127.165646 283.236095,126.407815 283.331913,125.606433 C283.811,121.521125 283.21869,118.437546 281.633347,117.984591 C280.048003,117.531636 277.913872,119.831258 276.145604,123.542007 C275.797177,124.264993 275.039346,124.691809 274.237964,124.595991 C270.152656,124.116904 267.069077,124.709227 266.616121,126.294571 C266.163166,127.879914 268.462789,130.014032 272.173538,131.7823 C272.896524,132.130727 273.323339,132.888558 273.227522,133.68994 C272.748435,137.775248 273.340771,140.858828 274.926115,141.311783 C276.511458,141.764738 278.645563,139.465115 280.413831,135.754367 C280.762258,135.03138 281.520089,134.604565 282.321471,134.700382 C286.398068,135.179469 289.481648,134.587146 289.943314,133.001803 C290.396269,131.416459 288.096646,129.282341 284.385897,127.514073 Z" id="star2" fill="#399675" fill-rule="nonzero"></path>
                <path d="M97.1237461,7.11489764 C96.3223637,7.15845103 95.5906615,6.68807493 95.2944984,5.93895663 C93.7701298,2.11496917 91.7840996,-0.315310095 90.1813349,0.0331170235 C88.5698595,0.381544142 87.7771841,3.42157085 87.9862404,7.5330106 C88.0297938,8.33439298 87.5594115,9.0660894 86.8102932,9.36225245 C82.9863058,10.8866211 80.5560278,12.8726563 80.9044549,14.4754211 C81.252882,16.0868965 84.2929095,16.8795669 88.4043492,16.6705106 C89.2057316,16.6269572 89.9374338,17.0973342 90.2335968,17.8464525 C91.7579654,21.6704399 93.7439956,24.1007198 95.3467604,23.7522926 C96.9582358,23.4038655 97.7509111,20.3638382 97.5418549,16.2523985 C97.4983015,15.4510161 97.9686701,14.7193189 98.7177884,14.4231558 C102.541776,12.9074979 104.972067,10.9214643 104.62364,9.30998885 C104.275213,7.69851343 101.235186,6.90584137 97.1237461,7.11489764 Z" id="star1" fill="#E06738" fill-rule="nonzero"></path>
            </g>
        </g>
    </g>
</svg>