<?xml version="1.0" encoding="UTF-8"?>
<svg width="281px" height="225px" viewBox="0 0 281 225" version="1.1" xmlns="http://www.w3.org/2000/svg" xmlns:xlink="http://www.w3.org/1999/xlink">
    <title>Order Success 2</title>
    <g id="Cover" stroke="none" stroke-width="1" fill="none" fill-rule="evenodd">
        <g id="Preview" transform="translate(-164, -390)">
            <g id="Registration-First" transform="translate(115, 255)">
                <g id="Order-Success" transform="translate(50, 135)">
                    <path d="M0.347937456,137.575572 C4.36206701,95.7585497 20.8375175,91.1883799 33.3064557,85.0491229 C47.4587378,78.0796197 59.5696773,76.8761426 75.8013848,42.4323221 C97.2278481,-3.04083257 135.784817,0.0440297559 150.378882,0.0440297559 C199.934719,0.0440297559 199.340624,49.1809376 223.265446,73.6389444 C245.788749,96.6573479 295.009444,146.555944 239.261028,190.757067 C210.232854,213.767853 69.0451562,221.08774 22.6274996,192.341393 C5.35734779,181.007385 -2.06917294,162.752111 0.347937456,137.575572 Z" id="Background" fill="#B3FFD1" fill-rule="nonzero"></path>
                    <g id="Success" transform="translate(188.3799, 18.2488)">
                        <path d="M41.47427,82.9485168 C18.5686679,82.9485168 0,64.3798605 0,41.4742584 C0,18.5686563 18.5686679,0 41.47427,0 C64.3798722,0 82.9485168,18.5686563 82.9485168,41.4742584 C82.9485168,64.3798605 64.3798722,82.9485168 41.47427,82.9485168 Z" id="Vector" fill="#32B768"></path>
                        <g id="Group" transform="translate(18.1733, 26.6147)" fill="#FFFFFF" fill-rule="nonzero">
                            <path d="M1.63861992,19.162024 C0.000976837704,17.8442927 -0.516986452,15.4982769 0.579853558,13.7082951 C1.90520186,11.5374662 4.77678868,11.088062 6.6962586,12.6266847 L20.9399543,24.0292507 L39.2739446,1.52118196 C40.713547,-0.245948984 43.3185457,-0.512541131 45.0856767,0.92706126 C46.8528077,2.36666365 47.1193999,4.97165935 45.6797975,6.73879029 L26.0966172,30.7702434 C23.9181712,33.4437908 19.9954616,33.8627252 17.3066803,31.7071301 L1.63861992,19.162024 Z" id="Vector"></path>
                        </g>
                    </g>
                    <g id="Food-Box" transform="translate(54.8774, 58.5881)">
                        <path d="M5.50705196,155.179436 C2.46027491,155.179436 0,152.711538 0,149.672378 L0,46.7446289 L140.014648,46.7446289 L140.014648,149.672378 C140.014648,152.711538 137.554367,155.179436 134.50759,155.179436 L5.50705196,155.179436 Z" id="Vector" fill="#32B768" fill-rule="nonzero"></path>
                        <path d="M83.7939987,18.2570801 L56.2282778,18.2570801 L26.5678973,18.2570801 L0,46.7444477 L56.2282778,46.7444477 L83.7939987,46.7444477 L140.014664,46.7444477 L113.446761,18.2570801 L83.7939987,18.2570801 Z" id="Vector" fill="#0E7F3D" fill-rule="nonzero"></path>
                        <path d="M26.5678711,18.2578163 L26.5678711,4.14361954 C26.5678711,1.85091932 28.4264074,0 30.7114908,0 L109.303131,0 C111.595831,0 113.446739,1.85853626 113.446739,4.14361954 L113.446739,18.2578163 L26.5678711,18.2578163 Z" id="Vector" fill="#32B768" fill-rule="nonzero"></path>
                        <g id="Group" transform="translate(17.7246, 82.9258)" fill="#0E7F3D">
                            <path d="M6.39823484,17.6408463 C2.8645878,17.6408463 0,13.6918074 0,8.82042313 C0,3.94903882 2.8645878,0 6.39823484,0 C9.93188189,0 12.7964697,3.94903882 12.7964697,8.82042313 C12.7964697,13.6918074 9.93188189,17.6408463 6.39823484,17.6408463 Z" id="Vector"></path>
                            <path d="M4.60791016,47.2719068 L4.60791016,13.1784668 L8.18025851,13.1784668 L8.18025851,47.2795196 C8.18025851,48.2621054 7.3804764,49.0618935 6.39789071,49.0618935 C5.4076881,49.0618935 4.60791016,48.2621096 4.60791016,47.2719068 Z" id="Vector" fill-rule="nonzero"></path>
                            <path d="M24.815918,47.2719068 L24.815918,13.1784668 L28.3882663,13.1784668 L28.3882663,47.2795196 C28.3882663,48.2621054 27.58849,49.0618935 26.6059043,49.0618935 C25.6157017,49.0618935 24.815918,48.2621096 24.815918,47.2719068 Z" id="Vector" fill-rule="nonzero"></path>
                            <path d="M33.0039892,11.0378974 C33.0039892,14.3817362 30.2847423,17.0933781 26.9485204,17.0933781 L26.263,17.0933781 C22.9191613,17.0933781 20.2075195,14.3817362 20.2075195,11.0378974 L20.2075195,1.68428981 C20.2075195,1.59288647 20.215143,1.50910286 20.2379938,1.42531647 C20.3598649,0.92259807 20.8016454,0.541748047 21.3424485,0.541748047 C21.8832516,0.541748047 22.3326564,0.92259807 22.4545276,1.42531647 C22.4773784,1.50910286 22.4849902,1.59288647 22.4849902,1.68428981 L22.4849902,8.76805105 C22.4849902,9.52974556 23.1095737,10.1543406 23.8712681,10.1543406 L24.0997788,10.1543406 C24.8614733,10.1543406 25.4860684,9.52974556 25.4860684,8.76805105 L25.4860684,1.68428981 C25.4860684,1.59288647 25.4936802,1.50910286 25.516531,1.42531647 C25.6384021,0.92259807 26.087807,0.541748047 26.6286101,0.541748047 C27.1694132,0.541748047 27.6111937,0.92259807 27.7330648,1.42531647 C27.7559156,1.50910286 27.7635274,1.59288647 27.7635274,1.68428981 L27.7635274,8.81375087 C27.7635274,9.58306231 28.3881183,10.2076532 29.1574297,10.2076532 L29.3554777,10.2076532 C30.1247892,10.2076532 30.7417557,9.58306231 30.7417557,8.81375087 L30.7417557,1.68428981 C30.7417557,1.59288647 30.7493791,1.50910286 30.77223,1.42531647 C30.8941011,0.92259807 31.3434943,0.541748047 31.8842974,0.541748047 C32.4251005,0.541748047 32.8745053,0.92259807 32.9963765,1.42531647 C32.9963765,1.50148592 33.0039892,1.59288647 33.0039892,1.68428981 L33.0039892,11.0378974 Z" id="Vector" fill-rule="nonzero"></path>
                        </g>
                    </g>
                    <g id="Burger" transform="translate(110.1387, 141.3601)">
                        <path d="M102.607884,83.6111898 L76.0780768,81.6384042 L69.8474218,80.0312402 L68.2402344,79.6199187 L74.9507606,76.2075195 L111.131247,77.6014333 L117.841773,77.8527822 L117.971272,77.8604066 L102.607884,83.6111898 Z" id="Vector" fill="#E06738" fill-rule="nonzero"></path>
                        <path d="M135.63493,68.8118433 L118.496805,72.4070417 L111.123609,77.609404 L110.971261,77.7236768 L102.600247,83.6191838 L76.2608408,78.3177975 L69.8473869,80.0468353 L56.5329602,83.6268082 L39.2501121,79.4831889 L9.30029389,81.7834976 L9.42978054,67.098031 L0,54.2254007 L14.7387915,54.2254007 L25.7071864,51.1557617 L34.7256571,55.7106908 L116.973416,56.1600877 L131.765509,51.4909091 L158.14299,70.1067331 L135.63493,68.8118433 Z" id="Vector" fill="#FDF0B9" fill-rule="nonzero"></path>
                        <g id="Group" transform="translate(23.0718, 0)">
                            <path d="M7.39601734,37.833252 L7.39601734,56.5176011 C7.39601734,64.286883 27.3143277,70.578495 51.8865841,70.578495 C76.4588405,70.578495 96.3771473,64.2792659 96.3771473,56.5176011 C96.7833843,49.1748678 96.7808428,42.9467514 96.3695229,37.833252 L7.39601734,37.833252 Z" id="Vector" fill="#EDB82C" fill-rule="nonzero"></path>
                            <path d="M101.510997,42.5026186 C100.086628,45.2066339 94.8309468,47.2403576 93.0942837,47.7506929 C89.1487071,48.9160854 92.0050598,54.9944141 84.5480722,53.1968152 C80.6938989,52.267548 79.5665865,54.8725523 77.4262255,56.9672121 C75.2934813,59.0618719 69.5960013,57.5994092 64.2565237,55.291475 C58.9170462,52.9835408 54.2859559,59.4807889 49.1292852,58.8561995 C43.9726145,58.23161 39.3415064,55.7104163 35.9595835,56.9672121 C32.5776606,58.2240079 30.6201067,56.9672037 26.522191,52.9835417 C22.4242754,48.9998797 18.3339855,54.453612 14.5940664,52.9835417 C10.8541473,51.5134715 12.2785127,47.9563569 8.1882142,46.0673547 C4.09029854,44.1783524 0,43.4852095 0,41.1391906 C0,37.6049283 2.70655483,35.3960152 8.1196645,34.5124512 L95.2651172,35.571206 C99.4849039,35.3503146 102.935365,39.7986033 101.510997,42.5026186 Z" id="Vector" fill="#E06738" fill-rule="nonzero"></path>
                            <path d="M51.8792285,49.3654137 C27.3069709,49.3654137 7.38867188,45.8159192 7.38867188,29.5156589 C7.38867188,13.2153985 27.3069709,0 51.8792285,0 C76.4514861,0 96.3697968,13.2153985 96.3697968,29.5156589 C96.3697968,45.8159192 76.4514861,49.3654137 51.8792285,49.3654137 Z" id="Vector" fill="#EDB82C" fill-rule="nonzero"></path>
                            <g transform="translate(21.9443, 2.9336)" fill="#FFFFFF" id="Vector">
                                <path d="M7.79223931,6.34477401 C7.03082258,6.34477401 6.41357422,6.03444096 6.41357422,5.65162924 C6.41357422,5.26881752 7.03082258,4.95849609 7.79223931,4.95849609 C8.55365604,4.95849609 9.1709044,5.26881752 9.1709044,5.65162924 C9.1709044,6.03444096 8.55365604,6.34477401 7.79223931,6.34477401 Z"></path>
                                <path d="M16.5363798,11.6843736 C15.7749632,11.6843736 15.1577148,11.3740522 15.1577148,10.9912405 C15.1577148,10.6084287 15.7749632,10.2980957 16.5363798,10.2980957 C17.2977965,10.2980957 17.9150565,10.6084287 17.9150565,10.9912405 C17.9150565,11.3740522 17.2977965,11.6843736 16.5363798,11.6843736 Z"></path>
                                <path d="M22.279544,6.34477401 C21.5181273,6.34477401 20.9008789,6.03444096 20.9008789,5.65162924 C20.9008789,5.26881752 21.5181273,4.95849609 22.279544,4.95849609 C23.0409607,4.95849609 23.6582091,5.26881752 23.6582091,5.65162924 C23.6582091,6.03444096 23.0409607,6.34477401 22.279544,6.34477401 Z"></path>
                                <path d="M31.9533952,1.38628936 C31.1919786,1.38628936 30.574707,1.07595635 30.574707,0.693144679 C30.574707,0.310333006 31.1919786,0 31.9533952,0 C32.7148118,0 33.3320601,0.310333006 33.3320601,0.693144679 C33.3320601,1.07595635 32.7148118,1.38628936 31.9533952,1.38628936 Z"></path>
                                <path d="M39.4787627,8.39385772 C38.717346,8.39385772 38.1000977,8.08352471 38.1000977,7.70071304 C38.1000977,7.31790137 38.717346,7.00756836 39.4787627,7.00756836 C40.2401795,7.00756836 40.8574278,7.31790137 40.8574278,7.70071304 C40.8574278,8.08352471 40.2401795,8.39385772 39.4787627,8.39385772 Z"></path>
                                <path d="M54.3469268,8.39385772 C53.5855101,8.39385772 52.9682617,8.08352471 52.9682617,7.70071304 C52.9682617,7.31790137 53.5855101,7.00756836 54.3469268,7.00756836 C55.1083435,7.00756836 55.7255919,7.31790137 55.7255919,7.70071304 C55.7255919,8.08352471 55.1083435,8.39385772 54.3469268,8.39385772 Z"></path>
                                <path d="M1.37866509,18.028856 C0.617248358,18.028856 0,17.7185346 0,17.3357229 C0,16.9529112 0.617248358,16.6425781 1.37866509,16.6425781 C2.14008182,16.6425781 2.75733018,16.9529112 2.75733018,17.3357229 C2.75733018,17.7185346 2.14008182,18.028856 1.37866509,18.028856 Z"></path>
                                <path d="M17.7243797,24.5266588 C16.9629631,24.5266588 16.3457031,24.2163373 16.3457031,23.8335256 C16.3457031,23.4507139 16.9629631,23.1403809 17.7243797,23.1403809 C18.4857964,23.1403809 19.1030447,23.4507139 19.1030447,23.8335256 C19.1030447,24.2163373 18.4857964,24.5266588 17.7243797,24.5266588 Z"></path>
                                <path d="M30.5666534,15.3484476 C29.8052366,15.3484476 29.1879883,15.0381146 29.1879883,14.6553029 C29.1879883,14.2724912 29.8052366,13.9621582 30.5666534,13.9621582 C31.3280701,13.9621582 31.9453185,14.2724912 31.9453185,14.6553029 C31.9453185,15.0381146 31.3280701,15.3484476 30.5666534,15.3484476 Z"></path>
                                <path d="M39.4787627,22.4465806 C38.717346,22.4465806 38.1000977,22.1362476 38.1000977,21.7534359 C38.1000977,21.3706242 38.717346,21.0603027 39.4787627,21.0603027 C40.2401795,21.0603027 40.8574278,21.3706242 40.8574278,21.7534359 C40.8574278,22.1362476 40.2401795,22.4465806 39.4787627,22.4465806 Z"></path>
                                <path d="M53.2116727,19.658983 C52.4502561,19.658983 51.8330078,19.3486616 51.8330078,18.9658498 C51.8330078,18.5830381 52.4502561,18.2727051 53.2116727,18.2727051 C53.9730894,18.2727051 54.5903609,18.5830381 54.5903609,18.9658498 C54.5903609,19.3486616 53.9730894,19.658983 53.2116727,19.658983 Z"></path>
                            </g>
                        </g>
                        <path d="M39.242337,61.1494141 L55.6568525,68.3398108 C60.0086655,67.8523177 63.1900086,67.5146289 65.2008817,67.3267443 C68.2171913,67.0449173 72.4826852,66.6107506 74.2041145,67.5400178 C75.9331606,68.4692849 78.7971277,70.556333 80.9603396,70.4496958 C83.1235515,70.3430586 90.9994684,66.4127101 94.1681168,67.5400178 C97.3367652,68.6673254 107.528234,68.0427361 110.971092,67.5400178 L93.8786692,73.4964733 L39.3032739,73.4964733 L25.5166016,68.1874626 L39.242337,61.1494141 Z" id="Vector" fill="#FDF0B9" fill-rule="nonzero"></path>
                        <path d="M137.265081,78.2651291 L117.971372,77.861432 L117.841874,77.8538077 L111.131348,77.6024588 L118.504567,72.407698 L135.642691,68.8125 L158.143127,70.1073896 L137.265081,78.2651291 Z" id="Vector" fill="#E06738" fill-rule="nonzero"></path>
                        <g id="Group" transform="translate(9.0552, 58.0347)" fill="#000000" fill-rule="nonzero">
                            <g transform="translate(102.0972, 2.7476)" id="Vector">
                                <path d="M0.01710705,3.12522063 C-0.0438284975,2.92718011 0.0628143005,2.7139018 0.260854827,2.64534931 C0.352258148,2.61488154 9.27168583,-0.249075081 16.1954877,0.0175179236 C16.4087621,0.0251348665 16.5687263,0.200316192 16.5611093,0.4135906 C16.5534924,0.626865009 16.3630539,0.77159525 16.1650134,0.779212193 C9.37069965,0.512619188 0.580757158,3.33850061 0.489353837,3.36896839 C0.458886063,3.39181828 0.420790187,3.39181828 0.382705469,3.39181828 C0.222749658,3.39181828 0.0704256554,3.29279337 0.01710705,3.12522063 Z"></path>
                            </g>
                            <g transform="translate(12.7671, 0)" id="Vector">
                                <path d="M13.8249985,4.66156558 C7.23634226,0.944497162 0.442025038,0.761694329 0.37347254,0.761694329 C0.160198109,0.754077386 -0.00736720798,0.586497196 0.000249735778,0.373222783 C0.00786667954,0.15994837 0.19066917,0.0228508294 0.388709705,0 C0.457262203,0 7.44200373,0.190423582 14.1982329,3.99889523 C14.3810396,4.10553244 14.4495939,4.33403516 14.3429567,4.51684179 C14.2744042,4.63871288 14.1449101,4.70726538 14.0154221,4.70726538 C13.9544865,4.70726538 13.885934,4.69203335 13.8249985,4.66156558 Z"></path>
                            </g>
                            <g transform="translate(0, 8.667)" id="Vector">
                                <path d="M9.48465392,2.85030294 L0.298610844,0.755643218 C0.0929533657,0.709941554 -0.0365267644,0.504279417 0.00917489466,0.298621913 C0.0548765537,0.0929644093 0.260527049,-0.0365273527 0.466184528,0.00917431196 L9.65221599,2.10383403 C9.85787346,2.1495357 9.98736521,2.35519783 9.94166355,2.56085534 C9.89596189,2.73604506 9.73601352,2.85792732 9.56844077,2.85792732 C9.53797299,2.85792732 9.5151217,2.85792732 9.48465392,2.85030294 Z"></path>
                            </g>
                        </g>
                    </g>
                    <path d="M23.000475,39.8571601 C22.2159299,39.9180956 21.4847022,39.4839299 21.1724075,38.767937 C19.5728496,35.0813353 17.5543595,32.7734005 15.9928862,33.1618647 C14.431413,33.5579458 13.7535034,36.5437885 14.0810319,40.550302 C14.1419675,41.3348473 13.7078048,42.0660752 12.9918121,42.37837 C9.30521167,43.9779284 6.99727752,45.9964192 7.3857416,47.557893 C7.78182262,49.1193667 10.7676615,49.7972736 14.7741736,49.469745 C15.5587187,49.4088094 16.2899464,49.8429755 16.6022411,50.5589684 C18.201799,54.24557 20.2202891,56.5535048 21.7817624,56.1650406 C23.3432356,55.7689595 24.0211452,52.7831194 23.6936167,48.776606 C23.6326811,47.9920606 24.0668471,47.2608327 24.7828397,46.9485379 C28.4694402,45.3413625 30.7849883,43.3304858 30.3889073,41.7690121 C29.9928262,40.2075383 27.0069871,39.5296314 23.000475,39.8571601 Z" id="Vector" fill="#32B768" fill-rule="nonzero"></path>
                    <path d="M273.964196,136.143406 C273.225353,135.892046 272.722631,135.198901 272.722631,134.414356 C272.715014,130.400226 271.793365,127.475326 270.201424,127.208733 C268.6171,126.949757 266.796647,129.42526 265.509383,133.226115 C265.258024,133.964958 264.564867,134.46768 263.780322,134.46768 C259.766193,134.475297 256.841293,135.396946 256.5747,136.988887 C256.315724,138.573211 258.791226,140.393665 262.592081,141.680928 C263.330925,141.932287 263.833646,142.625421 263.833646,143.409966 C263.841263,147.424096 264.762912,150.349008 266.354853,150.615601 C267.939177,150.874577 269.75963,148.399075 271.046894,144.598219 C271.298253,143.859376 271.99141,143.356654 272.775955,143.356654 C276.797701,143.349037 279.722601,142.427388 279.981577,140.835447 C280.240553,139.251123 277.765051,137.430669 273.964196,136.143406 Z" id="Vector" fill="#EDB82C" fill-rule="nonzero"></path>
                    <path d="M13.2890378,191.671091 C8.06958296,191.671091 3.83837891,187.439893 3.83837891,182.220437 C3.83837891,177.000981 8.06958296,172.769775 13.2890378,172.769775 C18.5084926,172.769775 22.7396946,177.000981 22.7396946,182.220437 C22.7396946,187.439893 18.5084926,191.671091 13.2890378,191.671091 Z" id="Vector" fill="#32B768"></path>
                </g>
            </g>
        </g>
    </g>
</svg>